<svg xmlns="http://www.w3.org/2000/svg" viewBox="0 0 149.96 120.1"><defs><style>.cls-1{fill:#4ad7ed;}.cls-2{fill:#39b54a;stroke:#39b54a;stroke-miterlimit:10;}</style></defs><g id="图层_2" data-name="图层 2"><g id="最终"><path d="M150,2.45h-1.78c.29.21.59.41.89.61l.89-.61Z"/><path d="M150,2.45h-1.78c.29.21.59.41.89.61l.89-.61Z"/><path class="cls-1" d="M78.77,78.21A39.38,39.38,0,0,1,39.39,117.6,39.4,39.4,0,0,1,.91,69.78a58.65,58.65,0,0,1,14.52-31s0,0,.05-.05c.89-.89,1.75-1.79,2.6-2.71a98.5,98.5,0,0,0,12-15.88A97.66,97.66,0,0,0,39.36,0a97.25,97.25,0,0,0,9.29,20.11h0A98.83,98.83,0,0,0,60.13,35.43l0,0q1.71,1.88,3.52,3.66A59.08,59.08,0,0,1,75.16,58.68a58.61,58.61,0,0,1,2.7,11.1A39,39,0,0,1,78.77,78.21Z"/><path class="cls-1" d="M63.67,39.11q-1.81-1.78-3.52-3.66Q62,37.21,63.67,39.11Z"/><path class="cls-2" d="M149.27,80.21a39.39,39.39,0,1,1-77.86-8.43,58.65,58.65,0,0,1,14.52-31s0,0,0-.05c.89-.89,1.75-1.79,2.6-2.71a98.5,98.5,0,0,0,12-15.88A97.66,97.66,0,0,0,109.86,2a97.25,97.25,0,0,0,9.29,20.11h0a98.83,98.83,0,0,0,11.48,15.31l0,0q1.71,1.88,3.52,3.66a58.64,58.64,0,0,1,14.19,30.67A39,39,0,0,1,149.27,80.21Z"/><path class="cls-2" d="M134.17,41.11q-1.81-1.78-3.52-3.66Q132.48,39.21,134.17,41.11Z"/></g></g></svg>